<?xml version="1.0" encoding="UTF-8" standalone="no"?>
<!DOCTYPE svg PUBLIC "-//W3C//DTD SVG 1.1//EN" "http://www.w3.org/Graphics/SVG/1.1/DTD/svg11.dtd">
<svg width="100%" height="100%" viewBox="0 0 512 512" version="1.1" xmlns="http://www.w3.org/2000/svg" xmlns:xlink="http://www.w3.org/1999/xlink" xml:space="preserve" xmlns:serif="http://www.serif.com/" style="fill-rule:evenodd;clip-rule:evenodd;">
    <g transform="matrix(41.4859,0,0,41.4859,-75.8869,-75.8869)">
        <g transform="matrix(0.338971,0,0,0.338971,-2.84707,-6.57575)">
            <ellipse cx="32" cy="52" rx="16" ry="4" style="fill:rgb(240,240,240);stroke:rgb(51,51,51);stroke-width:2px;"/>
        </g>
        <g transform="matrix(0.338971,0,0,0.338971,-2.84707,-6.57575)">
            <path d="M16,48C16,50.2 23.2,52 32,52C40.8,52 48,50.2 48,48" style="fill:white;fill-rule:nonzero;stroke:rgb(51,51,51);stroke-width:2px;"/>
        </g>
        <g transform="matrix(0.338971,0,0,0.338971,-2.84707,-6.57575)">
            <path d="M16,44C16,46.2 23.2,48 32,48C40.8,48 48,46.2 48,44" style="fill:white;fill-rule:nonzero;stroke:rgb(51,51,51);stroke-width:2px;"/>
        </g>
        <g transform="matrix(0.338971,0,0,0.338971,-2.84707,-6.57575)">
            <ellipse cx="32" cy="40" rx="16" ry="4" style="fill:rgb(224,224,224);stroke:rgb(51,51,51);stroke-width:2px;"/>
        </g>
        <g transform="matrix(0.338971,0,0,0.338971,-2.84707,-6.57575)">
            <path d="M24,34L30,40L40,30" style="fill:none;fill-rule:nonzero;stroke:rgb(76,175,80);stroke-width:3px;stroke-linecap:round;stroke-linejoin:round;"/>
        </g>
    </g>
</svg>
